<svg xmlns="http://www.w3.org/2000/svg" class="icon--root icon--defs">
      <defs>
        <radialGradient id="instagram-hover" r="150%" cx="30%" cy="107%">
          <stop offset="0%" stop-color="#fdf497"></stop>
          <stop offset="5%" stop-color="#fdf497"></stop>
          <stop offset="45%" stop-color="#fd5949"></stop>
          <stop offset="60%" stop-color="#d6249f"></stop>
          <stop offset="90%" stop-color="#285aeb"></stop>
        </radialGradient>
        <symbol id="loading-spinner" viewBox="0 0 100 100" preserveAspectRatio="xMidYMid">
          <rect x="48" y="24.5" rx="0" ry="0" width="4" height="13">
            <animate attributeName="opacity" values="1;0" keyTimes="0;1" dur="0.9090909090909091s" begin="-0.8391608391608392s" repeatCount="indefinite"></animate>
          </rect>
          <rect x="48" y="24.5" rx="0" ry="0" width="4" height="13" transform="rotate(27.692 50 50)">
            <animate attributeName="opacity" values="1;0" keyTimes="0;1" dur="0.9090909090909091s" begin="-0.7692307692307692s" repeatCount="indefinite"></animate>
          </rect>
          <rect x="48" y="24.5" rx="0" ry="0" width="4" height="13" transform="rotate(55.385 50 50)">
            <animate attributeName="opacity" values="1;0" keyTimes="0;1" dur="0.9090909090909091s" begin="-0.6993006993006993s" repeatCount="indefinite"></animate>
          </rect>
          <rect x="48" y="24.5" rx="0" ry="0" width="4" height="13" transform="rotate(83.077 50 50)">
            <animate attributeName="opacity" values="1;0" keyTimes="0;1" dur="0.9090909090909091s" begin="-0.6293706293706294s" repeatCount="indefinite"></animate>
          </rect>
          <rect x="48" y="24.5" rx="0" ry="0" width="4" height="13" transform="rotate(110.77 50 50)">
            <animate attributeName="opacity" values="1;0" keyTimes="0;1" dur="0.9090909090909091s" begin="-0.5594405594405594s" repeatCount="indefinite"></animate>
          </rect>
          <rect x="48" y="24.5" rx="0" ry="0" width="4" height="13" transform="rotate(138.462 50 50)">
            <animate attributeName="opacity" values="1;0" keyTimes="0;1" dur="0.9090909090909091s" begin="-0.4895104895104895s" repeatCount="indefinite"></animate>
          </rect>
          <rect x="48" y="24.5" rx="0" ry="0" width="4" height="13" transform="rotate(166.154 50 50)">
            <animate attributeName="opacity" values="1;0" keyTimes="0;1" dur="0.9090909090909091s" begin="-0.4195804195804196s" repeatCount="indefinite"></animate>
          </rect>
          <rect x="48" y="24.5" rx="0" ry="0" width="4" height="13" transform="rotate(193.846 50 50)">
            <animate attributeName="opacity" values="1;0" keyTimes="0;1" dur="0.9090909090909091s" begin="-0.34965034965034963s" repeatCount="indefinite"></animate>
          </rect>
          <rect x="48" y="24.5" rx="0" ry="0" width="4" height="13" transform="rotate(221.538 50 50)">
            <animate attributeName="opacity" values="1;0" keyTimes="0;1" dur="0.9090909090909091s" begin="-0.2797202797202797s" repeatCount="indefinite"></animate>
          </rect>
          <rect x="48" y="24.5" rx="0" ry="0" width="4" height="13" transform="rotate(249.23 50 50)">
            <animate attributeName="opacity" values="1;0" keyTimes="0;1" dur="0.9090909090909091s" begin="-0.2097902097902098s" repeatCount="indefinite"></animate>
          </rect>
          <rect x="48" y="24.5" rx="0" ry="0" width="4" height="13" transform="rotate(276.923 50 50)">
            <animate attributeName="opacity" values="1;0" keyTimes="0;1" dur="0.9090909090909091s" begin="-0.13986013986013984s" repeatCount="indefinite"></animate>
          </rect>
          <rect x="48" y="24.5" rx="0" ry="0" width="4" height="13" transform="rotate(304.615 50 50)">
            <animate attributeName="opacity" values="1;0" keyTimes="0;1" dur="0.9090909090909091s" begin="-0.06993006993006992s" repeatCount="indefinite"></animate>
          </rect>
          <rect x="48" y="24.5" rx="0" ry="0" width="4" height="13" transform="rotate(332.308 50 50)">
            <animate attributeName="opacity" values="1;0" keyTimes="0;1" dur="0.9090909090909091s" begin="0s" repeatCount="indefinite"></animate>
          </rect>
        </symbol>
      </defs>
    </svg>