<svg class="icon--root icon--x-mark" width="20" height="20" viewBox="0 0 20 20" fill="none" xmlns="http://www.w3.org/2000/svg">
      <path d="M9.997 0c5.518 0 9.998 4.48 9.998 9.997 0 5.518-4.48 9.998-9.998 9.998C4.48 19.995 0 15.515 0 9.997 0 4.48 4.48 0 9.997 0Zm0 8.933L7.276 6.211a.749.749 0 1 0-1.062 1.061l2.722 2.722-2.728 2.728a.75.75 0 1 0 1.061 1.062l2.728-2.728 2.729 2.728a.75.75 0 0 0 1.06-1.062l-2.727-2.728 2.717-2.717a.75.75 0 0 0-.531-1.281.746.746 0 0 0-.531.22L9.997 8.933Z" fill="#222"></path>
    </svg>